<?xml version="1.0" standalone="no"?><!DOCTYPE svg PUBLIC "-//W3C//DTD SVG 1.1//EN" "http://www.w3.org/Graphics/SVG/1.1/DTD/svg11.dtd"><svg t="1653630348683" class="icon" viewBox="0 0 1024 1024" version="1.1" xmlns="http://www.w3.org/2000/svg" p-id="3042" xmlns:xlink="http://www.w3.org/1999/xlink" width="200" height="200"><defs><style type="text/css">@font-face { font-family: feedback-iconfont; src: url("//at.alicdn.com/t/font_1031158_u69w8yhxdu.woff2?t=1630033759944") format("woff2"), url("//at.alicdn.com/t/font_1031158_u69w8yhxdu.woff?t=1630033759944") format("woff"), url("//at.alicdn.com/t/font_1031158_u69w8yhxdu.ttf?t=1630033759944") format("truetype"); }
</style></defs><path d="M170.7008 170.7008v682.7008h682.7008V170.7008H170.7008z m0-56.9344h682.7008c31.4368 0 56.9344 25.4976 56.9344 56.9344v682.7008c0 31.4368-25.4976 56.9344-56.9344 56.9344H170.7008c-31.4368 0-56.9344-25.4976-56.9344-56.9344V170.7008c0-31.4368 25.4976-56.9344 56.9344-56.9344z" fill="#323233" p-id="3043"></path><path d="M170.7008 284.4672h682.7008v56.9344H170.7008v-56.9344zM631.808 622.7968l-192.4096 96.1536c-14.0288 7.0656-31.1296 1.3312-38.1952-12.6976-1.9456-3.9936-2.9696-8.2944-2.9696-12.6976V501.1456c0-15.6672 12.6976-28.4672 28.4672-28.4672 4.4032 0 8.8064 1.024 12.6976 2.9696l192.4096 96.256c14.0288 7.0656 19.7632 24.064 12.6976 38.1952-2.7648 5.4272-7.168 9.9328-12.6976 12.6976z m-62.8736-25.4976l-113.7664-56.9344v113.7664l113.7664-56.832zM284.4672 170.7008h56.9344l57.2416 113.7664h-56.9344l-57.2416-113.7664z m170.5984 0H512l57.2416 113.7664h-56.9344l-57.2416-113.7664z m170.7008 0h56.9344l57.2416 113.7664H683.008l-57.2416-113.7664z" fill="#323233" p-id="3044"></path></svg>