<?xml version="1.0" standalone="no"?><!DOCTYPE svg PUBLIC "-//W3C//DTD SVG 1.1//EN" "http://www.w3.org/Graphics/SVG/1.1/DTD/svg11.dtd"><svg t="1673612285153" class="icon" viewBox="0 0 1024 1024" version="1.1" xmlns="http://www.w3.org/2000/svg" p-id="4841" xmlns:xlink="http://www.w3.org/1999/xlink" width="512" height="512"><path d="M533.504 268.288q33.792-41.984 71.68-75.776 32.768-27.648 74.24-50.176t86.528-19.456q63.488 5.12 105.984 30.208t67.584 63.488 34.304 87.04 6.144 99.84-17.92 97.792-36.864 87.04-48.64 74.752-53.248 61.952q-40.96 41.984-85.504 78.336t-84.992 62.464-73.728 41.472-51.712 15.36q-20.48 1.024-52.224-14.336t-69.632-41.472-79.872-61.952-82.944-75.776q-26.624-25.6-57.344-59.392t-57.856-74.24-46.592-87.552-21.504-100.352 11.264-99.84 39.936-83.456 65.536-61.952 88.064-35.328q24.576-5.12 49.152-1.536t48.128 12.288 45.056 22.016 40.96 27.648q45.056 33.792 86.016 80.896z" p-id="4842" fill="#ffffff"></path></svg>